<mxfile host="app.diagrams.net" modified="2022-05-19T08:56:32.503Z" agent="5.0 (Windows NT 10.0; Win64; x64) AppleWebKit/537.36 (KHTML, like Gecko) Chrome/101.0.4951.64 Safari/537.36 Edg/101.0.1210.47" etag="BInfFoIiKDXb9UCukki3" version="18.0.7" type="github">
  <diagram name="Page-1" id="74e2e168-ea6b-b213-b513-2b3c1d86103e">
    <mxGraphModel dx="1038" dy="579" grid="0" gridSize="10" guides="1" tooltips="1" connect="1" arrows="1" fold="1" page="1" pageScale="1" pageWidth="1100" pageHeight="850" background="none" math="0" shadow="0">
      <root>
        <mxCell id="0" />
        <mxCell id="1" parent="0" />
        <mxCell id="77e6c97f196da883-2" value="时段1" style="swimlane;html=1;startSize=20;container=0;" parent="1" vertex="1">
          <mxGeometry x="70" y="60" width="160" height="360" as="geometry" />
        </mxCell>
        <mxCell id="77e6c97f196da883-3" value="时段2" style="swimlane;html=1;startSize=20;container=0;" parent="1" vertex="1">
          <mxGeometry x="230" y="60" width="160" height="360" as="geometry" />
        </mxCell>
        <mxCell id="77e6c97f196da883-4" value="时段3" style="swimlane;html=1;startSize=20;container=0;" parent="1" vertex="1">
          <mxGeometry x="390" y="60" width="160" height="360" as="geometry" />
        </mxCell>
        <mxCell id="77e6c97f196da883-5" value="时段4" style="swimlane;html=1;startSize=20;container=0;" parent="1" vertex="1">
          <mxGeometry x="550" y="60" width="160" height="360" as="geometry" />
        </mxCell>
        <mxCell id="idKPSjYjaIZX4mR9VXPV-5" style="edgeStyle=orthogonalEdgeStyle;rounded=0;orthogonalLoop=1;jettySize=auto;html=1;exitX=1;exitY=0.5;exitDx=0;exitDy=0;entryX=0;entryY=0.5;entryDx=0;entryDy=0;" edge="1" parent="1" source="idKPSjYjaIZX4mR9VXPV-2" target="idKPSjYjaIZX4mR9VXPV-1">
          <mxGeometry relative="1" as="geometry" />
        </mxCell>
        <mxCell id="idKPSjYjaIZX4mR9VXPV-6" style="edgeStyle=orthogonalEdgeStyle;rounded=0;orthogonalLoop=1;jettySize=auto;html=1;exitX=1;exitY=0.5;exitDx=0;exitDy=0;entryX=0;entryY=0.5;entryDx=0;entryDy=0;" edge="1" parent="1" source="idKPSjYjaIZX4mR9VXPV-3" target="idKPSjYjaIZX4mR9VXPV-4">
          <mxGeometry relative="1" as="geometry" />
        </mxCell>
        <mxCell id="idKPSjYjaIZX4mR9VXPV-2" value="&lt;b style=&quot;font-size: 10px;&quot;&gt;1批次样本&lt;br style=&quot;font-size: 10px;&quot;&gt;进行瓶口检测&lt;/b&gt;" style="rounded=1;whiteSpace=wrap;html=1;shadow=0;labelBackgroundColor=none;strokeWidth=1;fontFamily=Verdana;fontSize=10;align=center;" vertex="1" parent="1">
          <mxGeometry x="90" y="102" width="120" height="60" as="geometry" />
        </mxCell>
        <mxCell id="idKPSjYjaIZX4mR9VXPV-1" value="&lt;b style=&quot;font-size: 10px;&quot;&gt;1批次样本&lt;br style=&quot;font-size: 10px;&quot;&gt;进行瓶身及瓶底检测&lt;/b&gt;" style="rounded=1;whiteSpace=wrap;html=1;shadow=0;labelBackgroundColor=none;strokeWidth=1;fontFamily=Verdana;fontSize=10;align=center;" vertex="1" parent="1">
          <mxGeometry x="250" y="102" width="120" height="60" as="geometry" />
        </mxCell>
        <mxCell id="idKPSjYjaIZX4mR9VXPV-3" value="&lt;b style=&quot;font-size: 10px;&quot;&gt;2批次样本&lt;br style=&quot;font-size: 10px;&quot;&gt;进行瓶口检测&lt;/b&gt;" style="rounded=1;whiteSpace=wrap;html=1;shadow=0;labelBackgroundColor=none;strokeWidth=1;fontFamily=Verdana;fontSize=10;align=center;" vertex="1" parent="1">
          <mxGeometry x="250" y="183" width="120" height="60" as="geometry" />
        </mxCell>
        <mxCell id="idKPSjYjaIZX4mR9VXPV-4" value="2批次样本&lt;br style=&quot;font-size: 10px;&quot;&gt;进行瓶身及瓶底检测" style="rounded=1;whiteSpace=wrap;html=1;shadow=0;labelBackgroundColor=none;strokeWidth=1;fontFamily=Verdana;fontSize=10;align=center;fontStyle=1" vertex="1" parent="1">
          <mxGeometry x="410" y="183" width="120" height="60" as="geometry" />
        </mxCell>
        <mxCell id="idKPSjYjaIZX4mR9VXPV-7" value="3批次样本&lt;br style=&quot;font-size: 10px;&quot;&gt;进行瓶口检测" style="rounded=1;whiteSpace=wrap;html=1;shadow=0;labelBackgroundColor=none;strokeWidth=1;fontFamily=Verdana;fontSize=10;align=center;fontStyle=1" vertex="1" parent="1">
          <mxGeometry x="413" y="265" width="120" height="60" as="geometry" />
        </mxCell>
        <mxCell id="idKPSjYjaIZX4mR9VXPV-8" value="3批次样本&lt;br style=&quot;font-size: 10px;&quot;&gt;进行瓶身及瓶底检测" style="rounded=1;whiteSpace=wrap;html=1;shadow=0;labelBackgroundColor=none;strokeWidth=1;fontFamily=Verdana;fontSize=10;align=center;fontStyle=1" vertex="1" parent="1">
          <mxGeometry x="573" y="265" width="120" height="60" as="geometry" />
        </mxCell>
        <mxCell id="idKPSjYjaIZX4mR9VXPV-9" style="edgeStyle=orthogonalEdgeStyle;rounded=0;orthogonalLoop=1;jettySize=auto;html=1;exitX=1;exitY=0.5;exitDx=0;exitDy=0;entryX=0;entryY=0.5;entryDx=0;entryDy=0;" edge="1" parent="1" source="idKPSjYjaIZX4mR9VXPV-7" target="idKPSjYjaIZX4mR9VXPV-8">
          <mxGeometry relative="1" as="geometry" />
        </mxCell>
        <mxCell id="idKPSjYjaIZX4mR9VXPV-13" value="4批次样本&lt;br style=&quot;font-size: 10px;&quot;&gt;进行瓶口检测" style="rounded=1;whiteSpace=wrap;html=1;shadow=0;labelBackgroundColor=none;strokeWidth=1;fontFamily=Verdana;fontSize=10;align=center;fontStyle=1" vertex="1" parent="1">
          <mxGeometry x="573" y="346" width="120" height="60" as="geometry" />
        </mxCell>
        <mxCell id="idKPSjYjaIZX4mR9VXPV-15" style="edgeStyle=orthogonalEdgeStyle;rounded=0;orthogonalLoop=1;jettySize=auto;html=1;exitX=1;exitY=0.5;exitDx=0;exitDy=0;entryX=0;entryY=0.5;entryDx=0;entryDy=0;" edge="1" parent="1" source="idKPSjYjaIZX4mR9VXPV-13">
          <mxGeometry relative="1" as="geometry">
            <mxPoint x="733" y="376" as="targetPoint" />
          </mxGeometry>
        </mxCell>
      </root>
    </mxGraphModel>
  </diagram>
</mxfile>
